<?xml version="1.0" encoding="UTF-8"?>
<svg width="32px" height="32px" viewBox="0 0 32 32" version="1.1" xmlns="http://www.w3.org/2000/svg">
    <title>DNA Favicon</title>
    <g stroke="none" stroke-width="1" fill="none" fill-rule="evenodd">
        <rect fill="#121212" x="0" y="0" width="32" height="32" rx="4"></rect>
        <path d="M16,4 C20,4 24,8 24,16 C24,24 20,28 16,28 C12,28 8,24 8,16 C8,8 12,4 16,4 Z" stroke="#00BCD4" stroke-width="1.5"></path>
        <path d="M8,8 L24,24" stroke="#00BCD4" stroke-width="1.5"></path>
        <path d="M8,24 L24,8" stroke="#00BCD4" stroke-width="1.5"></path>
        <circle fill="#00BCD4" cx="8" cy="8" r="2"></circle>
        <circle fill="#7C4DFF" cx="24" cy="8" r="2"></circle>
        <circle fill="#7C4DFF" cx="8" cy="24" r="2"></circle>
        <circle fill="#00BCD4" cx="24" cy="24" r="2"></circle>
        <circle fill="#00BCD4" cx="16" cy="16" r="2"></circle>
        <circle fill="#7C4DFF" cx="16" cy="8" r="1.5"></circle>
        <circle fill="#00BCD4" cx="16" cy="24" r="1.5"></circle>
        <circle fill="#7C4DFF" cx="8" cy="16" r="1.5"></circle>
        <circle fill="#00BCD4" cx="24" cy="16" r="1.5"></circle>
    </g>
</svg> 